# xmcd
#
# Track frame offsets:
#	150
#	18330
#	31827
#	47615
#	60119
#	73832
#	85770
#	98329
#	112957
#	124809
#	141482
#	152675
#	169587
#
# Disc length: 2426 seconds
#
# Revision: 0
# Processed by: cddbd v1.5.2PL0 Copyright (c) Steve Scherf et al.
# Submitted via: EasyCDDAExtractor 16.0.6.1
#
DISCID=9909780d
DTITLE=Sérgio Reis - Sérgio Reis - 50 Anos Cantando O Brasil Vol. 1
DYEAR=1900
DGENRE=
TTITLE0=Filho adotivo
TTITLE1=Rei do gado
TTITLE2=Escolta de vagalumes
TTITLE3=Cavalo enxuto
TTITLE4=Coração de papel
TTITLE5=Cidades de Mato Grosso
TTITLE6=Cavalo preto
TTITLE7=Estrada da saudade
TTITLE8=Procissão
TTITLE9=Um lugar junto a você
TTITLE10=Amor nada mais
TTITLE11=Chitãozinho e Xororó
TTITLE12=Fazenda de Santo Antônio
EXTD=
EXTT0=
EXTT1=
EXTT2=
EXTT3=
EXTT4=
EXTT5=
EXTT6=
EXTT7=
EXTT8=
EXTT9=
EXTT10=
EXTT11=
EXTT12=
PLAYORDER=
